<?xml version="1.0" standalone="no"?>
<!DOCTYPE svg PUBLIC "-//W3C//DTD SVG 1.1//EN" "http://www.w3.org/Graphics/SVG/1.1/DTD/svg11.dtd" >
<svg xmlns="http://www.w3.org/2000/svg" xmlns:svg="http://www.w3.org/2000/svg" xmlns:xlink="http://www.w3.org/1999/xlink" viewBox="0 0 1024 1024"><path d="M501.36 119.91Q523.91 102.95 535.84 109.12Q513.54 118.64 521.17 102.56Q574.13 102.24 684.66 116.52Q710.26 101.1 817.3 82.58Q889.83 114.06 948.81 129.49Q961.83 114.93 952.17 124.9Q966.66 138.17 945.1 157.69Q948.81 173.19 916.74 166.57Q882.28 186.28 844.05 191.29H765.98L742.84 210.86Q697.6 249.29 716.72 249.02Q689.35 252.37 688.41 254.87Q724.2 251.56 760.44 255.18Q789.15 243.93 844.27 260.29Q857.86 244.86 900.65 257.9Q916.36 254.96 904.53 276.4Q906.14 260.7 911.62 307.7Q927.63 348.9 939.96 345.41Q910.44 382.71 901.63 525.69Q933.23 605.02 904.9 697.26Q912.04 762.02 905.75 755.61Q915.63 769.69 886.19 779.37Q894.67 754.51 905.86 775.9Q892.74 768.19 825.54 777.02Q792.83 777.73 718.15 773.18Q636.52 779.1 600.22 784.51Q577.63 779.69 572.14 758.7Q548 781.61 540.71 751.92Q568.05 690.7 534.08 618.32Q536.34 541.16 537.3 484.97Q567.06 385.13 541.43 352Q572.79 311.54 555.42 298.51Q579.8 262.25 621.39 257.91Q630.18 241.88 627.45 243.09Q625.33 246.58 636 243.4Q635.68 248.03 636.98 242.04Q653.81 216.19 629.74 216.95L637.17 197.6Q632.44 168.69 663.2 179.02Q637.89 160.93 650.25 189.85Q623.7 178.08 588.41 185.7Q593.2 182.72 570.13 168.13Q550.26 155.69 528.85 185.62Q521.8 148.89 514.83 147.47Q532.85 130.85 536.63 139.27ZM90.93 185.5Q58.56 188.67 77.16 182.68Q86.12 160.74 107.42 151.15Q120.01 148.74 199.47 171.12L253.13 150.15L275.97 115.02Q279.56 115.66 285.04 120.38Q250.28 92.61 261.56 102.94Q258.72 93.58 276.86 78.58Q295.29 73.57 312.09 82.06Q294.19 65.81 306.34 77.02Q324.09 78.47 357.53 116.3L351.42 177.77H415.56Q489.92 176.07 471.9 167.41Q527.66 189.71 521.21 187.33Q494.62 215.68 483.64 199.57Q480.75 216.55 448.68 235.64Q453.07 228.27 421.73 254.35Q444.57 235.01 386.63 292.73L365.15 331.17L384.85 342.68Q402.99 331.84 395.49 357.76Q401.73 375.79 398.1 378.55Q415.99 393.45 413.28 386.24Q379.52 391.15 363.22 405.68Q332.41 387.37 320.25 383.33Q294.71 363.91 284.37 358.87Q280.59 352.12 270.15 363.26Q289.96 343.38 274.4 377.37Q265.58 383.23 228.34 374.16Q196.84 408.32 196.96 413.63Q176.07 405.54 175.2 410.41Q168.81 374.78 138.82 380.14Q169.53 378.91 179.59 366.36Q169.15 337.42 180.98 337.41Q199.31 324.1 212.23 337.4Q233.3 297.11 214.45 330.92L221.44 325.83Q218.39 300.89 224.42 291.16Q226.4 299.47 186.2 282.52Q182.11 283.46 181.01 280.56Q152.76 285.54 151.95 271.18Q178.18 262.24 144.51 280.93Q165.18 264.75 185.92 254.39Q172.44 254.43 187.03 227.26Q208.92 250.2 197.81 230.8Q216.36 244.01 244.32 256.63L296.4 297.18L338.11 250.19L342.93 225Q345.84 246.39 301.32 226.21Q277.19 235.36 215.49 240.06Q163.81 236.05 131.99 205.64Q68.38 204.56 88.83 233.66Q91.12 197.57 73.78 191.16ZM111.11 676.6Q119.69 521.18 138.64 450.42Q133.65 429.69 149.82 440.81Q154.22 408.61 158.73 394.66Q213.96 421.39 245.21 429.55Q287.07 405.37 313.9 412.45Q468.88 402.56 486.65 400.64Q520.51 418.84 517.23 462.1Q519.66 445.65 513.7 459.66Q543.89 458.64 518.71 464.56Q529.82 473.73 516.46 486.89Q468.85 469.36 388.08 483.52Q370.05 469.79 330.37 488.9L206.05 482.05V667.16Q179.87 749.47 211.9 804.14Q212.59 852.75 199.2 871.52Q206.49 899.79 169.35 910.96Q179.08 888.99 144.68 911.43Q152.01 905.44 145.7 895.71Q130.21 875.41 130.13 871.66Q120.32 847.42 134.59 789.79Q120.89 755.39 140.29 652.18ZM743.06 411.09L854.5 418.85V407.49Q841.67 359.38 831.26 337.61Q826.22 339.98 854.63 334.89Q817.63 340.61 737.5 337.18Q660.45 326.16 655.53 311.97Q638.36 321.05 620.53 330.66V377.52L639.2 416.32ZM249.95 913.29Q245.04 870.3 299.09 877.49Q313.59 866.69 323.03 845.66Q355.31 817.95 388.52 796.56Q393.84 763.26 439.92 759.52Q437.82 752.04 427.16 749.72Q460.4 760.05 462.86 755.51Q471.44 749.34 440 760.24Q453.46 744.62 459.12 769.16Q473.92 768.03 481.83 759.19Q480.36 784.62 463.89 795.17Q495.1 803.22 461.26 825.55Q434.89 838.51 412.55 853.65Q391.88 902.29 336.23 922.21Q311.33 946.81 276.55 933.66Q287.23 953.08 261.45 925.64Q272.85 956.59 264.39 938.83Q237.94 908.03 247.83 917.04Q236.47 898.2 232.17 892.49ZM623.1 517.93L625.36 578.03H827.69L854.21 529.77L826.53 473.98H626.11ZM613.59 676.34V704.04H826.45L850.4 652.46L737.49 634.36Q680.95 635.95 639.55 634.55Q626.23 647.58 624.57 620.88Q624.38 633.69 607.23 658.97Q610.1 649.88 613.47 680.88ZM498.52 904.9Q510.76 887.16 502.53 877.28Q529.64 882.32 532.06 835.52Q563.65 847.53 568 822.5Q601.55 832.63 631.38 812.86Q610.81 799.13 623.33 814.02Q645.42 825.04 642.53 810.63Q681.34 814.92 675.48 836.48Q675.95 865.77 631.14 871.8Q624.3 890.28 571.71 918.4Q545.64 953.79 522.95 926.32Q501.25 930.25 509.28 941.84Q499.89 944.97 497.01 931.45Q499.44 937.43 486.45 924.28Q480.56 911.33 475.04 917.24ZM817.21 823.64Q804.01 831.86 815.62 822.79Q832.45 806.56 830.5 804.07Q828.7 786.09 829.42 788.77Q875.84 832.95 873.93 858.91Q925.3 880.96 927.82 889.77Q944.07 898.97 956.76 910.55Q946.6 902.94 947.99 907.66Q961.74 940.28 957.54 956.7Q937.42 928.4 924.86 949.2Q901.38 965.44 893 955.86Q878.52 945.22 866 923.61Q870.2 927.83 875.26 897.6Q846.29 896.03 847.48 884.76Q856.84 880.72 814.54 882.09Q798.05 879.46 823.02 854.06Q794.8 861.51 788.85 856.47Q805.85 857.83 777.42 844.99Q785.13 822.15 800.88 835.06ZM265.68 608.73Q231.27 586.52 263.48 604.42Q279.71 588.65 310.33 540.03Q341.94 519.36 352.95 534.83Q347.03 523.13 358.64 486.44Q380.66 503.39 397.14 479.19Q405.53 482.32 435.2 513.03Q417.18 519.23 411.14 502.87Q447.96 528.3 410.89 520.58Q431.79 543.45 387.87 536.44Q362.11 579.73 324.73 626.79Q292.79 658.44 281.6 656.5Q266.09 638.52 261.76 648.61Q253.07 622 251.53 598.2ZM261.62 731.67Q265.63 716.71 268.92 697.68Q326.59 670.36 350.31 640.98Q385.35 627.95 398.06 617.91Q424.7 628.5 398.9 625.49Q409.39 619.66 421.03 643.42Q426.1 627.58 458.67 629.14Q446.39 672.21 403.73 685.99Q340.64 725.74 298.83 750.83Q284.71 766.55 312.94 771.21Q305.16 771.68 290.46 742.7Q256.49 758.55 266.69 724.94Z" fill="black"></path></svg>