<?xml version="1.0" standalone="no"?>
<!DOCTYPE svg PUBLIC "-//W3C//DTD SVG 1.1//EN" "http://www.w3.org/Graphics/SVG/1.1/DTD/svg11.dtd" >
<svg xmlns="http://www.w3.org/2000/svg" xmlns:svg="http://www.w3.org/2000/svg" xmlns:xlink="http://www.w3.org/1999/xlink" viewBox="0 0 1024 1024"><path d="M520.0 135.0Q522.0 122.0 526.5 115.0Q531.0 108.0 538.0 103.0Q568.0 97.0 680.0 97.0Q708.0 97.0 806.5 98.0Q905.0 99.0 938.0 110.0Q947.0 117.0 947.0 133.0Q947.0 149.0 936.0 162.0Q931.0 169.0 913.0 171.0Q895.0 173.0 841.0 173.0H754.0L727.0 214.0Q716.0 230.0 709.0 242.0Q702.0 254.0 702.0 256.0Q709.0 257.0 755.0 260.0Q801.0 263.0 844.0 263.0Q877.0 263.0 891.0 265.5Q905.0 268.0 911.0 275.0Q920.0 277.0 920.5 303.0Q921.0 329.0 921.0 342.0Q921.0 395.0 918.0 517.0Q916.0 614.0 912.5 682.5Q909.0 751.0 907.0 758.0Q904.0 763.0 898.5 768.5Q893.0 774.0 886.0 776.0Q877.0 778.0 831.0 780.5Q785.0 783.0 720.0 783.0Q630.0 783.0 596.5 781.0Q563.0 779.0 560.0 774.0Q554.0 770.0 552.5 735.0Q551.0 700.0 551.0 603.0Q553.0 535.0 553.5 466.5Q554.0 398.0 556.0 364.0Q558.0 299.0 567.0 281.0Q576.0 263.0 608.0 259.0Q619.0 256.0 626.5 252.0Q634.0 248.0 634.0 245.0Q634.0 239.0 635.5 230.0Q637.0 221.0 641.0 209.0L647.0 191.0Q650.0 182.0 650.0 178.0Q648.0 176.0 632.5 174.5Q617.0 173.0 596.0 173.0Q587.0 173.0 579.0 173.0Q544.0 173.0 532.0 166.0Q520.0 159.0 520.0 142.0Q520.0 139.0 520.0 135.0ZM72.0 199.0Q72.0 182.0 83.0 173.0Q88.0 169.0 112.5 166.5Q137.0 164.0 182.0 162.0L272.0 158.0L268.0 131.0Q267.0 125.0 267.0 119.0Q267.0 111.0 269.5 104.0Q272.0 97.0 279.0 90.0Q292.0 77.0 304.0 77.0Q311.0 77.0 323.0 84.5Q335.0 92.0 344.0 128.0L353.0 160.0H418.0Q470.0 160.0 491.5 167.5Q513.0 175.0 513.0 193.0Q513.0 207.0 501.5 215.0Q490.0 223.0 468.0 227.0Q454.0 229.0 439.5 238.5Q425.0 248.0 400.0 274.0L358.0 315.0L380.0 329.0Q410.0 351.0 412.5 363.0Q415.0 375.0 415.0 377.0Q415.0 392.0 394.0 394.0Q387.0 392.0 369.0 387.0Q351.0 382.0 331.0 374.0Q299.0 360.0 293.0 359.5Q287.0 359.0 286.0 359.0Q276.0 359.0 268.0 367.0Q247.0 382.0 223.5 390.0Q200.0 398.0 180.0 398.0Q162.0 398.0 157.5 394.5Q153.0 391.0 153.0 380.0Q153.0 373.0 161.0 364.0Q169.0 355.0 194.0 342.0Q211.0 333.0 222.5 325.0Q234.0 317.0 234.0 315.0L230.0 311.0Q225.0 308.0 216.0 304.0Q209.0 301.0 198.0 294.5Q187.0 288.0 180.0 281.0Q167.0 272.0 165.5 267.5Q164.0 263.0 164.0 261.0Q164.0 257.0 167.0 252.0Q175.0 239.0 193.0 239.0Q195.0 239.0 206.5 240.0Q218.0 241.0 252.0 261.0L293.0 284.0L322.0 259.0L351.0 230.0Q349.0 227.0 313.0 226.0Q277.0 225.0 221.0 225.0Q167.0 225.0 127.5 224.0Q88.0 223.0 83.0 221.0Q72.0 216.0 72.0 199.0ZM130.0 659.0Q130.0 508.0 132.5 464.5Q135.0 421.0 142.0 421.0Q146.0 416.0 176.5 414.5Q207.0 413.0 242.0 413.0Q278.0 413.0 329.0 414.0Q464.0 414.0 495.5 420.0Q527.0 426.0 527.0 444.0Q527.0 447.0 526.0 450.0Q527.0 452.0 527.0 453.0Q527.0 465.0 500.0 469.5Q473.0 474.0 402.0 474.0Q376.0 474.0 344.0 473.0L198.0 475.0V662.0Q196.0 742.0 195.0 801.0Q194.0 860.0 193.0 871.0Q187.0 895.0 175.0 900.5Q163.0 906.0 157.0 906.0Q145.0 906.0 135.0 896.0Q130.0 895.0 129.5 862.0Q129.0 829.0 129.0 803.0Q129.0 750.0 130.0 659.0ZM734.0 418.0 844.0 419.0V398.0Q846.0 362.0 846.0 347.5Q846.0 333.0 844.0 331.0Q826.0 329.0 751.0 326.0Q676.0 323.0 649.0 323.0Q633.0 323.0 628.0 324.0V371.0L626.0 416.0ZM249.0 902.0Q259.0 884.0 295.0 864.0Q313.0 855.0 335.5 837.0Q358.0 819.0 380.0 797.0Q409.0 767.0 421.5 759.0Q434.0 751.0 445.0 751.0Q447.0 751.0 450.0 751.0Q455.0 750.0 459.0 750.0Q466.0 750.0 470.5 753.0Q475.0 756.0 479.0 767.0Q480.0 772.0 480.0 777.0Q480.0 793.0 467.0 814.0Q454.0 835.0 414.0 866.0Q378.0 895.0 336.5 919.0Q295.0 943.0 277.0 945.0Q274.0 945.0 266.5 941.5Q259.0 938.0 254.0 932.0Q245.0 925.0 245.0 916.0Q245.0 909.0 249.0 902.0ZM625.0 527.0 626.0 565.0H841.0L842.0 527.0L844.0 491.0H623.0ZM623.0 673.0V704.0H844.0L841.0 637.0L734.0 635.0Q691.0 635.0 659.5 636.0Q628.0 637.0 626.0 639.0Q625.0 641.0 624.0 651.0Q623.0 661.0 623.0 673.0ZM492.0 899.0Q499.0 884.0 520.0 871.0Q533.0 864.0 551.0 853.0Q569.0 842.0 583.0 832.0Q598.0 821.0 611.5 814.5Q625.0 808.0 632.0 808.0Q646.0 808.0 657.0 819.0Q668.0 830.0 668.0 842.0Q668.0 857.0 642.5 878.5Q617.0 900.0 580.0 922.0Q545.0 941.0 533.0 942.0Q521.0 943.0 518.0 943.0Q501.0 943.0 493.0 931.0Q488.0 922.0 488.0 914.0Q488.0 906.0 492.0 899.0ZM798.0 828.0Q803.0 814.0 814.0 806.0Q819.0 803.0 825.0 803.0Q832.0 803.0 845.5 808.5Q859.0 814.0 893.0 841.0Q932.0 873.0 942.0 887.0Q952.0 901.0 952.0 912.0Q952.0 917.0 950.0 922.0Q947.0 941.0 938.0 944.0Q929.0 947.0 924.0 947.0Q912.0 947.0 896.0 938.0Q886.0 932.0 877.0 926.0Q868.0 920.0 862.0 914.0Q859.0 911.0 849.0 902.0Q839.0 893.0 826.0 886.0Q815.0 877.0 806.0 868.0Q797.0 859.0 796.0 853.0Q794.0 849.0 794.0 844.0Q794.0 836.0 798.0 828.0ZM247.0 610.0Q247.0 603.0 259.5 589.5Q272.0 576.0 301.0 554.0Q324.0 536.0 343.0 522.0Q362.0 508.0 367.0 506.0Q382.0 497.0 397.0 497.0Q403.0 497.0 415.5 500.5Q428.0 504.0 428.0 520.0Q428.0 521.0 428.0 522.0Q428.0 533.0 404.0 553.5Q380.0 574.0 310.0 625.0Q289.0 639.0 274.0 639.0Q270.0 639.0 259.0 636.5Q248.0 634.0 247.0 610.0ZM266.0 738.0Q266.0 722.0 287.0 702.0Q308.0 682.0 364.0 648.0Q382.0 637.0 397.0 629.0Q412.0 621.0 416.0 621.0Q427.0 621.0 434.0 628.0Q441.0 635.0 441.0 648.0Q437.0 661.0 391.5 702.0Q346.0 743.0 317.0 761.0Q304.0 766.0 294.0 766.0Q287.0 766.0 277.5 762.0Q268.0 758.0 266.0 738.0Z" fill="black"></path></svg>